<?xml version="1.0" encoding="UTF-8"?>
<svg id="Layer_2" data-name="Layer 2" xmlns="http://www.w3.org/2000/svg" viewBox="0 0 822 288">
  <defs>
    <style>
      .cls-1 {
        fill: #100e0f;
      }

      .cls-1, .cls-2, .cls-3 {
        stroke-width: 0px;
      }

      .cls-2, .cls-3 {
        fill: #fff;
      }

      .cls-3 {
        fill-rule: evenodd;
      }
    </style>
  </defs>
  <g id="Layer_1-2" data-name="Layer 1">
    <g>
      <rect class="cls-1" width="822" height="288"/>
      <g>
        <path class="cls-2" d="M423.28,136.99h-30.27c-.78,0-1.41.63-1.41,1.41v14.8c0,.78.63,1.42,1.41,1.42h11.81v18.39s-2.65.9-9.98.9c-8.65,0-20.73-3.16-20.73-29.72s12.58-30.06,24.39-30.06c10.22,0,14.63,1.8,17.43,2.67.88.27,1.69-.61,1.69-1.39l3.38-14.3c0-.37-.12-.81-.54-1.1-1.14-.81-8.08-4.7-25.62-4.7-20.21,0-40.93,8.6-40.93,49.92s23.73,47.48,43.73,47.48c16.56,0,26.6-7.08,26.6-7.08.41-.23.46-.81.46-1.07v-46.15c0-.78-.63-1.41-1.41-1.41Z"/>
        <path class="cls-2" d="M579.26,100.25c0-.79-.62-1.42-1.4-1.42h-17.04c-.78,0-1.41.64-1.41,1.42,0,0,0,32.93,0,32.93h-26.56v-32.93c0-.79-.63-1.42-1.41-1.42h-17.04c-.78,0-1.41.64-1.41,1.42v89.18c0,.79.63,1.43,1.41,1.43h17.04c.78,0,1.41-.64,1.41-1.43v-38.14h26.56s-.05,38.14-.05,38.14c0,.79.63,1.43,1.41,1.43h17.08c.78,0,1.4-.64,1.41-1.43v-89.18Z"/>
        <g>
          <path class="cls-2" d="M455.44,111.95c0-6.14-4.92-11.1-10.99-11.1s-10.99,4.96-10.99,11.1,4.92,11.1,10.99,11.1,10.99-4.97,10.99-11.1Z"/>
          <path class="cls-2" d="M454.22,170.61v-41.16c0-.78-.63-1.42-1.41-1.42h-16.99c-.78,0-1.48.8-1.48,1.59v58.98c0,1.73,1.08,2.25,2.48,2.25h15.31c1.68,0,2.09-.82,2.09-2.28v-17.95Z"/>
        </g>
        <path class="cls-2" d="M644.03,128.16h-16.91c-.78,0-1.41.64-1.41,1.43v43.73s-4.3,3.14-10.39,3.14-7.72-2.77-7.72-8.74v-38.13c0-.79-.63-1.43-1.41-1.43h-17.16c-.77,0-1.41.64-1.41,1.43v41.02c0,17.73,9.88,22.07,23.48,22.07,11.15,0,20.15-6.16,20.15-6.16,0,0,.43,3.25.62,3.63.19.38.7.77,1.24.77l10.92-.05c.77,0,1.41-.64,1.41-1.42v-59.86c0-.79-.64-1.43-1.42-1.43Z"/>
        <path class="cls-2" d="M690.25,126.16c-9.61,0-16.14,4.29-16.14,4.29v-30.2c0-.79-.63-1.42-1.41-1.42h-17.09c-.78,0-1.41.64-1.41,1.42v89.18c0,.79.63,1.43,1.41,1.43h11.86c.53,0,.94-.28,1.24-.76.29-.48.72-4.11.72-4.11,0,0,6.99,6.62,20.22,6.62,15.53,0,24.44-7.88,24.44-35.37s-14.23-31.08-23.84-31.08ZM683.58,176.41c-5.87-.18-9.84-2.84-9.84-2.84v-28.24s3.92-2.41,8.74-2.84c6.09-.55,11.96,1.29,11.96,15.82,0,15.32-2.65,18.34-10.85,18.1Z"/>
        <path class="cls-2" d="M503.2,128.02h-12.78s-.02-16.88-.02-16.89c0-.64-.33-.96-1.07-.96h-17.42c-.68,0-1.04.3-1.04.95v17.45s-8.73,2.11-9.32,2.28c-.59.17-1.02.71-1.02,1.36v10.97c0,.79.63,1.42,1.41,1.42h8.93v26.38c0,19.6,13.75,21.52,23.02,21.52,4.24,0,9.31-1.36,10.15-1.67.51-.19.8-.71.8-1.28v-12.06c.01-.79-.65-1.42-1.4-1.42s-2.65.3-4.61.3c-6.28,0-8.41-2.92-8.41-6.7s0-25.07,0-25.07h12.78c.78,0,1.41-.64,1.41-1.42v-13.74c0-.79-.63-1.42-1.41-1.42Z"/>
      </g>
      <path class="cls-3" d="M180.82,65.11c-43.5,0-78.67,35.43-78.67,79.26,0,35.03,22.53,64.69,53.79,75.19,3.91.79,5.34-1.71,5.34-3.8,0-1.84-.13-8.14-.13-14.7-21.88,4.72-26.44-9.45-26.44-9.45-3.52-9.19-8.73-11.55-8.73-11.55-7.16-4.86.52-4.86.52-4.86,7.95.52,12.11,8.14,12.11,8.14,7.03,12.07,18.36,8.66,22.92,6.56.65-5.12,2.74-8.66,4.95-10.63-17.45-1.84-35.82-8.66-35.82-39.1,0-8.66,3.12-15.75,8.07-21.26-.78-1.97-3.52-10.1.78-21,0,0,6.64-2.1,21.62,8.14,6.41-1.73,13.03-2.62,19.67-2.62,6.64,0,13.41.92,19.67,2.62,14.98-10.24,21.62-8.14,21.62-8.14,4.3,10.89,1.56,19.03.78,21,5.08,5.51,8.08,12.6,8.08,21.26,0,30.44-18.36,37.13-35.95,39.1,2.87,2.49,5.34,7.22,5.34,14.7,0,10.63-.13,19.16-.13,21.78,0,2.1,1.43,4.59,5.34,3.81,31.26-10.5,53.79-40.15,53.79-75.19.13-43.83-35.17-79.26-78.54-79.26Z"/>
    </g>
  </g>
</svg>