<?xml version="1.0" encoding="UTF-8"?>
<svg id="Layer_2" data-name="Layer 2" xmlns="http://www.w3.org/2000/svg" xmlns:xlink="http://www.w3.org/1999/xlink" viewBox="0 0 389 105.18">
  <defs>
    <style>
      .cls-1 {
        fill: none;
      }

      .cls-1, .cls-2, .cls-3 {
        stroke-width: 0px;
      }

      .cls-2 {
        fill: #fff;
      }

      .cls-4 {
        clip-path: url(#clippath);
      }

      .cls-3 {
        fill: #0082be;
      }
    </style>
    <clipPath id="clippath">
      <rect class="cls-1" x="52.7" y="16.59" width="283.61" height="72"/>
    </clipPath>
  </defs>
  <g id="Layer_1-2" data-name="Layer 1">
    <rect class="cls-2" width="389" height="105.18"/>
    <g class="cls-4">
      <path class="cls-3" d="M138.79,56.69v21.27h-10.83v-18.78c0-5.54-2.36-7.25-5.4-7.25-3.21,0-6.36,2.42-6.36,7.39v18.64h-10.83v-34.39h10.41v4.76h.14c1.05-2.12,4.71-5.73,10.29-5.73,6.04,0,12.57,3.58,12.57,14.09h0ZM166.07,59.1l13.81,18.85h-13.45l-11.26-16.5h-.21v16.5h-10.83V27.23h10.83v30.28h.21l10.98-13.95h13.18l-13.26,15.54h0ZM235.03,69.53c-4.38,0-8.4-3.19-8.4-8.91s3.85-8.77,8.4-8.77,8.54,3.4,8.54,8.84-4.25,8.84-8.54,8.84h0ZM242.84,47.23h-.14c-1.92-2.18-5.5-4.63-10.5-4.63-8.59,0-16.23,6.74-16.23,18.02,0,12.63,8.81,18.3,16.37,18.3,6.24,0,9.95-3.17,11.26-5.46h.14v4.49h9.93V27.23h-10.83v19.99h0ZM188.05,56.82c.24-3.65,3.15-6.56,7.62-6.56,4.72,0,6.97,2.91,6.97,6.56h-14.6ZM195.95,42.46c-9.56,0-18.39,6.57-18.39,18.44s8.79,18.16,18.74,18.16c7.49,0,12.64-3.47,15.45-7.32l-7.55-4.85c-1.28,1.57-3.49,3.47-7.62,3.47-4.56,0-7.56-2.62-8.35-5.43-.19-.66-.19-1.06-.19-1.06h24.93c.04-.41.07-1.53.07-2.69,0-12.15-7.53-18.71-17.1-18.71h0ZM64.17,67.66h19.7v10.29h-31.17V27.23h11.47v40.43h0ZM100.41,32.56c0,3.59-2.79,6.21-6.24,6.21s-6.24-2.62-6.24-6.21,2.79-6.22,6.24-6.22,6.24,2.63,6.24,6.22h0ZM88.75,43.54h10.83v34.39h-10.83v-34.39h0ZM325.67,77.95h-10.82v-18.78c0-5.54-2.36-7.25-5.39-7.25-3.21,0-6.36,2.42-6.36,7.39v18.64h-10.82v-34.39h10.41v4.76h.14c1.05-2.12,4.7-5.73,10.29-5.73,6.04,0,12.57,3.58,12.57,14.09v21.27h0ZM280.35,38.77c-3.45,0-6.24-2.62-6.24-6.21s2.79-6.22,6.24-6.22,6.24,2.63,6.24,6.22-2.79,6.21-6.24,6.21h0ZM285.76,77.93h-10.82v-34.39h10.82v34.39h0ZM330.99,16.59h-61.37c-2.93,0-5.31,2.38-5.31,5.31v61.37c0,2.94,2.38,5.32,5.31,5.32h61.37c2.94,0,5.32-2.38,5.32-5.32V21.9c0-2.94-2.38-5.31-5.32-5.31h0Z"/>
    </g>
  </g>
</svg>