<?xml version="1.0" encoding="UTF-8"?>
<svg id="Layer_2" data-name="Layer 2" xmlns="http://www.w3.org/2000/svg" xmlns:xlink="http://www.w3.org/1999/xlink" viewBox="0 0 301.46 105.18">
  <defs>
    <style>
      .cls-1 {
        fill: none;
      }

      .cls-1, .cls-2, .cls-3 {
        stroke-width: 0px;
      }

      .cls-2 {
        fill: #fff;
      }

      .cls-4 {
        clip-path: url(#clippath);
      }

      .cls-3 {
        fill: #0082be;
      }
    </style>
    <clipPath id="clippath">
      <rect class="cls-1" x="49.29" y="26.83" width="202.88" height="51.51"/>
    </clipPath>
  </defs>
  <g id="Layer_1-2" data-name="Layer 1">
    <rect class="cls-2" width="301.46" height="105.18"/>
    <g class="cls-4">
      <path class="cls-3" d="M110.87,55.52v15.21h-7.75v-13.44c0-3.96-1.69-5.19-3.86-5.19-2.3,0-4.55,1.73-4.55,5.29v13.34h-7.75v-24.6h7.45v3.41h.1c.75-1.51,3.37-4.1,7.36-4.1,4.32,0,8.99,2.56,8.99,10.08h0ZM130.39,57.25l9.88,13.49h-9.62l-8.05-11.81h-.15v11.81h-7.75v-36.28h7.75v21.66h.15l7.86-9.98h9.43l-9.49,11.11h0ZM179.72,64.71c-3.13,0-6.01-2.28-6.01-6.37s2.75-6.27,6.01-6.27,6.11,2.43,6.11,6.32-3.04,6.32-6.11,6.32h0ZM185.31,48.75h-.1c-1.37-1.56-3.93-3.31-7.51-3.31-6.14,0-11.61,4.82-11.61,12.89,0,9.04,6.3,13.09,11.71,13.09,4.46,0,7.12-2.26,8.05-3.9h.1v3.21h7.1v-36.28h-7.75v14.3h0ZM146.11,55.62c.17-2.61,2.26-4.69,5.45-4.69,3.37,0,4.99,2.08,4.99,4.69h-10.44ZM151.77,45.34c-6.84,0-13.16,4.7-13.16,13.19s6.29,12.99,13.4,12.99c5.36,0,9.04-2.48,11.06-5.24l-5.4-3.47c-.92,1.12-2.5,2.48-5.45,2.48-3.26,0-5.41-1.87-5.97-3.89-.13-.47-.13-.76-.13-.76h17.84c.03-.3.05-1.09.05-1.93,0-8.69-5.39-13.39-12.23-13.39h0ZM57.49,63.37h14.1v7.36h-22.3v-36.28h8.2v28.92h0ZM83.42,38.26c0,2.57-2,4.44-4.47,4.44s-4.47-1.88-4.47-4.44,2-4.45,4.47-4.45,4.47,1.88,4.47,4.45h0ZM75.08,46.11h7.75v24.6h-7.75v-24.6h0ZM244.56,70.73h-7.74v-13.44c0-3.96-1.69-5.19-3.86-5.19-2.3,0-4.55,1.73-4.55,5.29v13.34h-7.74v-24.6h7.45v3.41h.1c.75-1.51,3.37-4.1,7.36-4.1,4.32,0,8.99,2.56,8.99,10.08v15.21h0ZM212.14,42.71c-2.47,0-4.46-1.88-4.46-4.44s2-4.45,4.46-4.45,4.46,1.88,4.46,4.45-2,4.44-4.46,4.44h0ZM216.02,70.71h-7.74v-24.6h7.74v24.6h0ZM248.37,26.83h-43.9c-2.1,0-3.8,1.7-3.8,3.8v43.9c0,2.1,1.7,3.8,3.8,3.8h43.9c2.1,0,3.8-1.7,3.8-3.8V30.64c0-2.1-1.7-3.8-3.8-3.8h0Z"/>
    </g>
  </g>
</svg>